<mxfile host="app.diagrams.net" modified="2021-05-27T03:16:11.395Z" agent="5.0 (X11; Linux x86_64) AppleWebKit/537.36 (KHTML, like Gecko) Chrome/87.0.4280.66 Safari/537.36" etag="w9rAGtohGEJEi63HjhGM" version="14.7.0" type="github">
  <diagram id="Cjj3EbLv5Fek7z0adMi1" name="Page-1">
    <mxGraphModel dx="1030" dy="594" grid="1" gridSize="10" guides="1" tooltips="1" connect="1" arrows="1" fold="1" page="1" pageScale="1" pageWidth="827" pageHeight="1169" math="0" shadow="0">
      <root>
        <mxCell id="0" />
        <mxCell id="1" parent="0" />
        <mxCell id="wFQRYTJyp1MDSDhn1XXY-24" value="" style="rounded=0;whiteSpace=wrap;html=1;labelBackgroundColor=none;fontSize=14;fontColor=#007FFF;strokeColor=#007FFF;fillColor=none;dashed=1;" vertex="1" parent="1">
          <mxGeometry x="620" y="335" width="160" height="120" as="geometry" />
        </mxCell>
        <mxCell id="wFQRYTJyp1MDSDhn1XXY-1" value="" style="shape=mxgraph.signs.people.man_1;html=1;pointerEvents=1;strokeColor=none;verticalLabelPosition=bottom;verticalAlign=top;align=center;fillColor=#007FFF;" vertex="1" parent="1">
          <mxGeometry x="627.5" y="342" width="37" height="98" as="geometry" />
        </mxCell>
        <mxCell id="wFQRYTJyp1MDSDhn1XXY-2" value="" style="shape=mxgraph.signs.transportation.gas_1;html=1;pointerEvents=1;strokeColor=none;verticalLabelPosition=bottom;verticalAlign=top;align=center;fillColor=#007FFF;" vertex="1" parent="1">
          <mxGeometry x="170" y="340" width="68.5" height="98" as="geometry" />
        </mxCell>
        <mxCell id="wFQRYTJyp1MDSDhn1XXY-3" value="" style="ellipse;shape=cloud;whiteSpace=wrap;html=1;labelBorderColor=none;labelBackgroundColor=none;fillColor=#007FFF;strokeColor=#007FFF;" vertex="1" parent="1">
          <mxGeometry x="354" y="120" width="135" height="90" as="geometry" />
        </mxCell>
        <mxCell id="wFQRYTJyp1MDSDhn1XXY-7" value="" style="endArrow=classic;html=1;entryX=0.41;entryY=0;entryDx=0;entryDy=0;entryPerimeter=0;strokeWidth=2;dashed=1;strokeColor=#007FFF;" edge="1" parent="1" target="wFQRYTJyp1MDSDhn1XXY-2">
          <mxGeometry width="50" height="50" relative="1" as="geometry">
            <mxPoint x="360" y="180" as="sourcePoint" />
            <mxPoint x="460" y="280" as="targetPoint" />
          </mxGeometry>
        </mxCell>
        <mxCell id="wFQRYTJyp1MDSDhn1XXY-9" value="命令、信息下发" style="text;html=1;align=center;verticalAlign=middle;resizable=0;points=[];autosize=1;strokeColor=none;rotation=-45;fontSize=14;" vertex="1" parent="1">
          <mxGeometry x="210" y="230" width="110" height="20" as="geometry" />
        </mxCell>
        <mxCell id="wFQRYTJyp1MDSDhn1XXY-10" value="" style="endArrow=classic;html=1;dashed=1;fontSize=14;strokeColor=#007FFF;strokeWidth=2;exitX=0.929;exitY=0.143;exitDx=0;exitDy=0;exitPerimeter=0;" edge="1" parent="1" source="wFQRYTJyp1MDSDhn1XXY-2">
          <mxGeometry width="50" height="50" relative="1" as="geometry">
            <mxPoint x="410" y="330" as="sourcePoint" />
            <mxPoint x="380" y="200" as="targetPoint" />
          </mxGeometry>
        </mxCell>
        <mxCell id="wFQRYTJyp1MDSDhn1XXY-11" value="" style="endArrow=classic;html=1;entryX=0.41;entryY=0;entryDx=0;entryDy=0;entryPerimeter=0;strokeWidth=2;dashed=1;strokeColor=#007FFF;" edge="1" parent="1">
          <mxGeometry width="50" height="50" relative="1" as="geometry">
            <mxPoint x="610" y="395" as="sourcePoint" />
            <mxPoint x="249.99999999999994" y="395" as="targetPoint" />
          </mxGeometry>
        </mxCell>
        <mxCell id="wFQRYTJyp1MDSDhn1XXY-12" value="" style="endArrow=classic;html=1;dashed=1;fontSize=14;strokeColor=#007FFF;strokeWidth=2;exitX=0.929;exitY=0.143;exitDx=0;exitDy=0;exitPerimeter=0;" edge="1" parent="1">
          <mxGeometry width="50" height="50" relative="1" as="geometry">
            <mxPoint x="259.99700000000007" y="436.014" as="sourcePoint" />
            <mxPoint x="610" y="436" as="targetPoint" />
          </mxGeometry>
        </mxCell>
        <mxCell id="wFQRYTJyp1MDSDhn1XXY-13" value="" style="endArrow=classic;html=1;strokeWidth=2;dashed=1;strokeColor=#007FFF;" edge="1" parent="1">
          <mxGeometry width="50" height="50" relative="1" as="geometry">
            <mxPoint x="470" y="200" as="sourcePoint" />
            <mxPoint x="610" y="350" as="targetPoint" />
          </mxGeometry>
        </mxCell>
        <mxCell id="wFQRYTJyp1MDSDhn1XXY-14" value="" style="endArrow=classic;html=1;dashed=1;fontSize=14;strokeColor=#007FFF;strokeWidth=2;" edge="1" parent="1">
          <mxGeometry width="50" height="50" relative="1" as="geometry">
            <mxPoint x="634" y="330" as="sourcePoint" />
            <mxPoint x="490" y="180" as="targetPoint" />
          </mxGeometry>
        </mxCell>
        <mxCell id="wFQRYTJyp1MDSDhn1XXY-15" value="身份认证、用户校验" style="text;html=1;align=center;verticalAlign=middle;resizable=0;points=[];autosize=1;strokeColor=none;rotation=45;fontSize=14;" vertex="1" parent="1">
          <mxGeometry x="505" y="230" width="140" height="20" as="geometry" />
        </mxCell>
        <mxCell id="wFQRYTJyp1MDSDhn1XXY-16" value="身份认证、信息传输" style="text;html=1;align=center;verticalAlign=middle;resizable=0;points=[];autosize=1;strokeColor=none;rotation=0;fontSize=14;" vertex="1" parent="1">
          <mxGeometry x="365" y="365" width="140" height="20" as="geometry" />
        </mxCell>
        <mxCell id="wFQRYTJyp1MDSDhn1XXY-17" value="数据、状态、告警上传" style="text;html=1;align=center;verticalAlign=middle;resizable=0;points=[];autosize=1;strokeColor=none;rotation=-45;fontSize=14;" vertex="1" parent="1">
          <mxGeometry x="245" y="290" width="160" height="20" as="geometry" />
        </mxCell>
        <mxCell id="wFQRYTJyp1MDSDhn1XXY-18" value="" style="shape=mxgraph.signs.transportation.car_4;html=1;pointerEvents=1;strokeColor=none;verticalLabelPosition=bottom;verticalAlign=top;align=center;labelBackgroundColor=none;fontSize=14;fontColor=#007FFF;fillColor=#007FFF;" vertex="1" parent="1">
          <mxGeometry x="671" y="352" width="98" height="86" as="geometry" />
        </mxCell>
        <mxCell id="wFQRYTJyp1MDSDhn1XXY-19" value="信息传输" style="text;html=1;align=center;verticalAlign=middle;resizable=0;points=[];autosize=1;strokeColor=none;rotation=0;fontSize=14;" vertex="1" parent="1">
          <mxGeometry x="400" y="445" width="70" height="20" as="geometry" />
        </mxCell>
        <mxCell id="wFQRYTJyp1MDSDhn1XXY-20" value="" style="endArrow=classic;startArrow=classic;html=1;fontSize=14;fontColor=#007FFF;strokeWidth=2;strokeColor=#CC0000;" edge="1" parent="1">
          <mxGeometry width="50" height="50" relative="1" as="geometry">
            <mxPoint x="251" y="415" as="sourcePoint" />
            <mxPoint x="611" y="415" as="targetPoint" />
          </mxGeometry>
        </mxCell>
        <mxCell id="wFQRYTJyp1MDSDhn1XXY-21" value="&lt;font color=&quot;#cc0000&quot;&gt;双向能量传输&lt;/font&gt;" style="edgeLabel;html=1;align=center;verticalAlign=middle;resizable=0;points=[];fontSize=14;fontColor=#007FFF;" vertex="1" connectable="0" parent="wFQRYTJyp1MDSDhn1XXY-20">
          <mxGeometry x="-0.0667" relative="1" as="geometry">
            <mxPoint as="offset" />
          </mxGeometry>
        </mxCell>
        <mxCell id="wFQRYTJyp1MDSDhn1XXY-23" value="结算信息下发&lt;br&gt;" style="text;html=1;align=center;verticalAlign=middle;resizable=0;points=[];autosize=1;strokeColor=none;rotation=45;fontSize=14;" vertex="1" parent="1">
          <mxGeometry x="460" y="270" width="100" height="20" as="geometry" />
        </mxCell>
        <mxCell id="wFQRYTJyp1MDSDhn1XXY-31" value="&lt;font color=&quot;#000000&quot;&gt;桩体、云平台和人车之间容易发生的信息安全隐患以及防护措施，&lt;br&gt;如身份认证，信息交互时的泄漏和篡改、重要数据、软件、进程的保护&lt;/font&gt;" style="text;html=1;align=center;verticalAlign=middle;resizable=0;points=[];autosize=1;strokeColor=none;fontSize=14;fontColor=#007FFF;" vertex="1" parent="1">
          <mxGeometry x="210" y="520" width="450" height="40" as="geometry" />
        </mxCell>
        <mxCell id="wFQRYTJyp1MDSDhn1XXY-33" value="&lt;font size=&quot;1&quot; color=&quot;#ffffff&quot;&gt;&lt;b style=&quot;font-size: 11px&quot;&gt;可信&lt;br&gt;节点&lt;/b&gt;&lt;/font&gt;" style="text;html=1;align=center;verticalAlign=middle;resizable=0;points=[];autosize=1;strokeColor=none;fontSize=14;fontColor=#007FFF;" vertex="1" parent="1">
          <mxGeometry x="181" y="400" width="40" height="40" as="geometry" />
        </mxCell>
        <mxCell id="wFQRYTJyp1MDSDhn1XXY-34" value="" style="pointerEvents=1;shadow=0;dashed=0;html=1;strokeColor=none;labelPosition=center;verticalLabelPosition=bottom;verticalAlign=top;outlineConnect=0;align=center;shape=mxgraph.office.services.verification_service;labelBackgroundColor=none;sketch=0;fontSize=14;fontColor=#007FFF;fillColor=#FF0000;" vertex="1" parent="1">
          <mxGeometry x="186.51" y="370" width="28.98" height="30" as="geometry" />
        </mxCell>
        <mxCell id="wFQRYTJyp1MDSDhn1XXY-36" value="&lt;font size=&quot;1&quot; color=&quot;#ffffff&quot;&gt;&lt;b style=&quot;font-size: 11px&quot;&gt;可信&lt;br&gt;节点&lt;/b&gt;&lt;/font&gt;" style="text;html=1;align=center;verticalAlign=middle;resizable=0;points=[];autosize=1;strokeColor=none;fontSize=14;fontColor=#007FFF;" vertex="1" parent="1">
          <mxGeometry x="420" y="145" width="40" height="40" as="geometry" />
        </mxCell>
        <mxCell id="wFQRYTJyp1MDSDhn1XXY-37" value="" style="pointerEvents=1;shadow=0;dashed=0;html=1;strokeColor=none;labelPosition=center;verticalLabelPosition=bottom;verticalAlign=top;outlineConnect=0;align=center;shape=mxgraph.office.services.verification_service;labelBackgroundColor=none;sketch=0;fontSize=14;fontColor=#007FFF;fillColor=#FF0000;" vertex="1" parent="1">
          <mxGeometry x="391.02" y="150" width="28.98" height="30" as="geometry" />
        </mxCell>
      </root>
    </mxGraphModel>
  </diagram>
</mxfile>
